HIERARCHY
ROOT Hips
{
  OFFSET 0 0 0
  CHANNELS 6 Xposition Yposition Zposition Zrotation Yrotation Xrotation
  JOINT LeftThigh
  {
    OFFSET 8.409438 0 -5.917753
    CHANNELS 3 Zrotation Yrotation Xrotation
    JOINT LeftLeg
    {
      OFFSET 0 0 -42.358652
      CHANNELS 3 Zrotation Yrotation Xrotation
      JOINT LeftFoot
      {
        OFFSET 0 0 -39.357303
        CHANNELS 3 Zrotation Yrotation Xrotation
      }
    }
  }
  JOINT RightThigh
  {
    OFFSET -8.409438 0 -5.917753
    CHANNELS 3 Zrotation Yrotation Xrotation
    JOINT RightLeg
    {
      OFFSET 0 0 -42.358652
      CHANNELS 3 Zrotation Yrotation Xrotation
      JOINT RightFoot
      {
        OFFSET 0 0 -39.357303
        CHANNELS 3 Zrotation Yrotation Xrotation
      }
    }
  }
  JOINT SpineLow
  {
    OFFSET 0 0 4.719101
    CHANNELS 3 Zrotation Yrotation Xrotation
    JOINT SpineMid
    {
      OFFSET 0 0 12.899191
      CHANNELS 3 Zrotation Yrotation Xrotation
      JOINT Chest
      {
        OFFSET 0 0 12.899191
        CHANNELS 3 Zrotation Yrotation Xrotation
        JOINT LeftShoulder
        {
          OFFSET 7.550562 1.41573 9.438202
          CHANNELS 3 Zrotation Yrotation Xrotation
          JOINT LeftArm
          {
            OFFSET 9.155056 0 4.247191
            CHANNELS 3 Zrotation Yrotation Xrotation
            JOINT LeftForearm
            {
              OFFSET 0 0 25.771955
              CHANNELS 3 Zrotation Yrotation Xrotation
              JOINT LeftHand
              {
                OFFSET 0 0 25.197169
                CHANNELS 3 Zrotation Yrotation Xrotation
              }
            }
          }
        }
        JOINT RightShoulder
        {
          OFFSET -7.550562 1.41573 9.438202
          CHANNELS 3 Zrotation Yrotation Xrotation
          JOINT RightArm
          {
            OFFSET -9.155056 0 4.247191
            CHANNELS 3 Zrotation Yrotation Xrotation
            JOINT RightForearm
            {
              OFFSET 0 0 -25.771955
              CHANNELS 3 Zrotation Yrotation Xrotation
              JOINT RightHand
              {
                OFFSET 0 0 -25.197169
                CHANNELS 3 Zrotation Yrotation Xrotation
              }
            }
          }
        }
        JOINT Neck
        {
          OFFSET 0 0 15.101124
          CHANNELS 3 Zrotation Yrotation Xrotation
          JOINT Head
          {
            OFFSET 0 0 11.325843
            CHANNELS 3 Zrotation Yrotation Xrotation
            End Site
            {
              OFFSET 0 0 14.157303
            }
          }
        }
      }
    }
  }
}
MOTION
Frames: 14
Frame Time: 0.0
0.0  89.887642  0.0  4.992263  5.649595  -127.726522  14.519312  -8.359546  12.692806  -15.222613  14.707917  37.793337  -7.504638  -1.853795  0.892446  14.062104  -2.538399  -59.57246  5.043301  19.93623  67.666427  13.109774  -2.259742  -3.130559  -1.695569  -0.455717  4.181398  -4.697697  -0.94822  11.455669  -4.697697  -0.94822  11.455669  -14.677086  33.46242  13.694247  131.417015  38.27649  -160.906108  -22.390069  -1.600792  84.969273  57.11857  -9.719346  55.819074  3.968824  13.277631  34.01489  45.787229  67.046073  -27.091704  -22.192827  -8.737221  -69.718604  79.792198  3.075648  -6.99184  -18.753276  5.821219  6.390025  -14.115609  4.175129  4.973181  
0.0  89.887642  0.0  4.269416  6.926114  -127.846779  14.111433  -8.348258  12.873985  -15.21773  13.832816  37.567466  -8.163446  -1.969301  0.826706  12.487565  -2.438855  -57.949895  2.092069  18.165553  50.334495  9.563133  -4.241816  -2.781106  -1.89063  -0.612367  4.271216  -5.25794  -1.333596  11.71611  -5.25794  -1.333596  11.71611  -16.413187  33.948503  12.441601  132.223012  37.780775  -161.020625  -21.919457  -1.961464  85.608346  56.322501  -9.475289  55.310574  2.779527  14.232308  33.935185  46.5249  66.522107  -25.94802  -22.045371  -8.332692  -70.496863  80.18702  3.003207  -7.223011  -19.201714  5.913975  5.945225  -14.447697  4.254236  4.646871  
0.0  89.887642  0.0  3.624756  8.414714  -127.48945  13.07911  -7.867254  12.620851  -14.792673  13.053634  37.340204  -8.581811  -1.977134  0.833653  8.485575  0.103779  -54.803667  -0.549933  12.008981  30.999385  5.671408  -5.910235  -2.895223  -1.90299  -0.661598  4.374925  -5.302321  -1.456962  12.003798  -5.302321  -1.456962  12.003798  -19.110943  33.266595  11.000174  132.903567  37.229375  -161.085386  -21.702204  -2.151695  86.153179  56.590527  -9.140596  55.464626  0.421273  14.114064  33.027899  47.596899  65.849794  -24.309324  -21.861753  -8.028255  -71.354365  80.592516  2.787533  -7.28421  -20.249396  5.279499  5.548594  -15.225725  3.78111  4.339606  
0.0  89.887642  0.0  2.907677  10.60259  -126.684948  11.012699  -6.714911  12.093483  -13.936342  12.397627  37.007663  -8.864055  -2.076686  0.875792  6.121272  2.738692  -48.482416  -5.418853  7.192308  9.908864  4.439624  -7.36025  -4.94702  -2.09133  -0.651076  4.454057  -5.814625  -1.387087  12.222244  -5.814625  -1.387087  12.222244  -21.014789  32.201758  9.47965  133.309699  36.710059  -160.971725  -21.113373  -3.23618  86.390537  56.531045  -9.07155  55.51221  -1.256434  13.665664  31.470851  49.244881  64.892586  -21.86302  -21.688477  -7.893632  -72.228572  80.830733  2.363106  -7.551049  -21.059103  4.42022  5.066965  -15.824407  3.145234  3.956585  
0.0  89.887642  0.0  2.127899  13.221878  -125.866057  8.371425  -5.303462  11.722171  -12.586382  11.701716  36.595577  -9.275157  -2.203228  0.935958  4.813498  9.877125  -47.573779  -11.232089  0.268368  -2.931985  3.08324  -9.722567  -3.715619  -2.463381  -0.590037  4.45633  -6.816291  -1.152049  12.227661  -6.816291  -1.152049  12.227661  -21.607992  31.240457  8.289409  133.349588  36.189487  -161.134019  -20.647898  -4.730885  86.317997  56.011768  -9.604446  54.89767  -3.837476  13.061962  28.409274  56.039496  63.09791  -15.366781  -21.455893  -7.985385  -73.259427  80.967636  1.679266  -7.943073  -21.450421  3.650065  4.890202  -16.112773  2.569804  3.800315  
0.0  89.887642  0.0  2.542047  13.718641  -125.493123  9.013588  -4.797937  12.220681  -11.843911  11.095055  36.084108  -10.196894  -2.276373  0.786928  17.766417  26.836486  -51.828574  -32.139404  -2.09382  -3.295538  -1.743366  -9.709648  -1.080845  -2.454182  -0.520317  4.441476  -6.778084  -0.965699  12.179567  -6.778083  -0.965699  12.179566  -21.471949  30.866392  7.876626  132.975255  35.917712  -161.665574  -20.322318  -6.152611  85.961104  55.033527  -10.693437  53.735576  -4.632455  12.486473  26.633822  59.866688  60.58547  -10.308043  -21.126741  -8.319254  -74.546583  81.234063  0.728313  -8.298778  -21.909245  3.22848  5.023869  -16.455414  2.244778  3.888763  
0.0  89.887642  0.0  4.535915  10.632502  -125.079763  14.443727  -6.40632  13.1073  -12.7744  11.558779  35.149164  -10.606516  -2.065108  0.49663  21.963982  32.689972  -56.380825  -44.399794  -2.963392  -1.643726  -0.431615  -9.366325  1.013727  -1.802557  -0.453054  4.435362  -4.991275  -0.903114  12.150362  -4.991275  -0.903114  12.150361  -20.706626  30.507879  8.177282  132.425898  35.996888  -162.146026  -20.551625  -6.479388  85.755471  54.373591  -11.364964  53.274846  -5.994019  12.353639  24.846995  63.768704  57.457996  -5.604081  -20.72603  -8.703406  -76.17673  81.798356  -0.576682  -8.579065  -22.402448  2.997378  5.236457  -16.825119  2.059443  4.042936  
0.0  89.887642  0.0  6.684102  7.774954  -124.955878  18.65258  -8.753335  14.073729  -14.044043  13.428913  34.492057  -10.231394  -1.56979  -0.130637  22.81759  25.940741  -59.32595  -43.178013  0.60456  -1.99023  1.557745  -8.390618  1.638296  -1.234069  -0.294863  4.636197  -3.415434  -0.566419  12.684131  -3.415434  -0.566419  12.684132  -19.767885  29.2838  7.690352  132.370187  36.644005  -162.210077  -21.890958  -4.537737  86.272821  55.348806  -11.162441  53.239054  -6.654276  12.503404  22.141654  65.837086  53.887261  -2.903268  -20.379483  -8.602414  -77.956348  82.4702  -2.055151  -8.865342  -22.514877  2.49505  4.790774  -16.904252  1.69754  3.690499  
0.0  89.887642  0.0  8.242655  7.064005  -125.476943  17.584134  -8.572531  14.308372  -13.883147  15.517746  35.475679  -8.64088  -1.010627  -0.520102  18.119902  15.487926  -65.280188  -34.510823  6.357929  4.20063  3.554653  -8.358034  2.120703  -0.886454  -0.005866  5.036066  -2.412198  0.168054  13.763691  -2.412198  0.168054  13.763691  -20.380604  27.176992  6.457436  133.114821  37.601577  -162.163526  -22.756497  -3.406007  86.496628  55.368419  -11.378687  53.066668  -6.572513  12.45625  19.929413  64.812379  50.691275  -2.94224  -20.290254  -7.894817  -79.770274  83.202231  -3.718208  -9.217132  -22.864417  1.49233  3.768867  -17.157309  0.97981  2.887178  
0.0  89.887642  0.0  8.586261  8.823846  -125.604598  11.873285  -3.80017  13.400058  -12.405274  15.35782  37.178464  -6.5662  -0.528861  -0.253447  10.395066  1.361198  -72.228003  -15.80465  11.160087  14.726832  3.438772  -7.842137  3.010219  -0.972058  0.258802  5.186978  -2.587816  0.911338  14.165854  -2.587816  0.911338  14.165853  -21.399812  25.391704  5.658597  134.236456  37.983034  -162.50892  -22.372681  -3.379771  87.236967  54.357211  -11.481228  52.35544  -7.838807  12.635181  18.942694  65.439587  48.453052  -3.098894  -20.266117  -6.92956  -81.461706  83.842703  -5.242647  -9.750028  -23.13359  0.848328  2.916283  -17.35439  0.526676  2.223098  
0.0  89.887642  0.0  8.509985  10.151735  -126.651956  8.226828  0.479451  12.991212  -13.290727  15.335162  37.870044  -3.842778  -0.254013  0.812083  4.636856  -11.699653  -77.452183  1.566487  12.166769  28.074062  2.057361  -6.5218  3.206502  -1.192019  0.38646  5.320855  -3.155794  1.311536  14.522629  -3.155794  1.311536  14.522629  -21.940076  24.6701  5.114832  135.235695  37.742318  -162.483646  -21.833496  -3.595086  86.968451  53.970822  -12.369894  52.54548  -5.570696  13.198355  20.92032  62.335967  47.979406  -5.342193  -20.133458  -6.122897  -82.793854  84.574646  -6.50982  -10.453982  -22.821558  1.020961  2.251577  -17.119748  0.682717  1.729662  
0.0  89.887642  0.0  8.320958  10.256287  -127.453543  10.007783  0.794776  13.304152  -15.549729  15.713232  38.344553  -2.99906  -0.861431  1.737872  3.238362  -17.226009  -82.091836  9.393855  14.030284  39.696754  0.309648  -6.252506  4.412651  -1.452999  0.392283  5.296289  -3.864645  1.383008  14.449189  -3.864645  1.383008  14.449189  -21.516916  25.595939  5.810778  135.687499  38.577147  -162.257665  -21.808806  -4.052297  86.539571  54.084396  -13.532558  53.186149  -4.897369  13.586754  21.824047  64.129563  47.841874  -4.728647  -20.259492  -5.388678  -83.508608  85.437017  -7.372262  -11.351649  -21.77007  1.867639  2.021166  -16.332481  1.330709  1.584726  
0.0  89.887642  0.0  7.440031  10.274298  -127.208603  12.520458  -1.096751  13.390511  -13.541174  13.658533  40.249348  -6.506888  -1.868188  1.656346  3.150878  -21.140209  -83.100585  12.005971  19.682438  47.799066  3.722446  -5.690804  4.219599  -1.842954  0.268367  4.891171  -4.96016  1.101148  13.341239  -4.96016  1.101148  13.34124  -20.308008  28.05038  7.773539  135.126716  39.73895  -162.781261  -22.09624  -5.375481  85.928322  53.35316  -15.297312  54.226315  -3.645228  13.987032  23.819513  67.066955  48.043068  -3.175595  -20.73147  -4.826921  -83.710662  86.379131  -8.12661  -12.238782  -20.380475  3.232563  2.836857  -15.296674  2.332927  2.237999  
0.0  89.887642  0.0  6.980061  10.421185  -127.213028  12.780498  -2.186126  14.187696  -8.711788  10.780562  41.427681  -10.974815  -2.535775  1.595355  5.823962  -20.384018  -86.395042  13.898768  24.257914  58.561879  5.984676  -4.604426  3.920103  -2.164455  0.17336  4.458791  -5.861636  0.869459  12.161533  -5.861636  0.869459  12.161533  -19.705443  30.294666  8.72073  134.188614  39.633482  -163.681299  -22.622404  -7.424632  86.099018  51.868715  -16.319653  55.238826  -3.156195  14.129957  25.919746  71.05312  48.097508  -0.529829  -21.260714  -4.450529  -83.553143  87.387611  -8.949408  -13.239269  -19.287305  4.505114  4.197806  -14.489767  3.250385  3.293132  
